<?xml version="1.0" encoding="utf-8" standalone="no"?>
<!DOCTYPE svg PUBLIC "-//W3C//DTD SVG 1.1//EN"
  "http://www.w3.org/Graphics/SVG/1.1/DTD/svg11.dtd">
<!-- Created with matplotlib (http://matplotlib.sourceforge.net/) -->
<svg height="432pt" version="1.1" viewBox="0 0 576 432" width="576pt" xmlns="http://www.w3.org/2000/svg" xmlns:xlink="http://www.w3.org/1999/xlink">
 <defs>
  <style type="text/css">
*{stroke-linecap:square;stroke-linejoin:round;}
  </style>
 </defs>
 <g id="figure_1">
  <g id="patch_1">
   <path d="
M0 432
L576 432
L576 0
L0 0
z
" style="fill:#ffffff;"/>
  </g>
  <g id="axes_1">
   <g id="patch_2">
    <path d="
M72 388.8
L518.4 388.8
L518.4 43.2
L72 43.2
z
" style="fill:#ffffff;"/>
   </g>
   <g id="line2d_1">
    <path clip-path="url(#p7ff5b81e1d)" d="
M72 226.703
L72.8928 193.391
L73.3392 183.693
L73.6963 180.049
L73.9195 179.47
L74.0088 179.562
L74.1874 180.237
L74.4552 182.3
L74.9462 188.239
L75.4819 194.139
L75.7051 194.831
L75.7944 194.727
L76.1515 193.555
L76.2408 193.697
L76.3747 194.905
L76.5533 199.046
L77.0443 216.709
L77.1336 215.755
L77.2675 207.363
L77.5354 175.26
L77.58 176.074
L77.6693 194.063
L77.9371 273.917
L78.0264 255.027
L78.3389 107.576
L78.4282 131.428
L78.7853 345.201
L78.8746 338.086
L79.187 279.639
L79.7674 174.679
L79.812 176.87
L79.9459 219.561
L80.1691 294.104
L80.2138 293.699
L80.3923 269.195
L80.8387 215.538
L81.0173 201.635
L81.0619 201.951
L81.1512 211.661
L81.553 291.792
L81.5976 289.863
L82.1333 257.689
L82.3565 255.42
L82.4458 255.302
L82.4904 255.329
L82.9368 255.952
L82.9814 255.886
L83.16 255.192
L83.4278 252.759
L83.8296 246.321
L84.9456 226.831
L85.3474 223.725
L85.8384 221.694
L86.5973 218.609
L87.6686 213.303
L87.8026 208.198
L87.9365 189.627
L88.1597 130.379
L88.2043 132.197
L88.3382 211.006
L88.5168 290.375
L88.6954 240.672
L88.9186 205.31
L89.1864 196.764
L89.4542 192.922
L89.4989 192.772
L89.5435 192.809
L89.6328 193.486
L89.8114 197.254
L90.481 215.253
L90.5256 215.318
L90.5702 215.192
L90.7042 213.553
L90.8827 207.04
L91.0613 191.428
L91.3291 159.444
L91.3738 161.612
L91.5077 203.028
L91.7755 289.505
L91.8648 282.392
L92.2219 245.418
L92.4005 241.655
L92.4898 241.483
L92.5344 241.582
L92.8469 242.608
L92.9362 242.115
L93.0701 239.086
L93.2486 226.725
L93.5611 191.134
L93.6058 194.875
L93.7397 240.812
L93.9629 315.131
L94.0075 314.118
L94.1861 285.686
L94.6325 217.849
L94.6771 216.356
L94.7218 217.687
L94.8557 241.126
L95.1235 291.196
L95.2128 286.41
L95.8824 224.595
L96.5966 187.05
L96.9091 143.913
L97.043 131.284
L97.0877 133.024
L97.2216 168.197
L97.5787 301.178
L97.668 295.453
L98.159 242.896
L98.4269 235.619
L99.0965 227.288
L99.2304 226.6
L99.275 226.632
L99.3643 227.175
L99.5429 230.274
L100.123 243.277
L100.168 243.239
L100.302 241.911
L100.57 235.352
L100.837 224.123
L100.971 207.073
L101.239 136.909
L101.284 142.015
L101.462 263.265
L101.552 298.156
L101.596 296.937
L102.043 221.239
L102.087 221.061
L102.132 221.228
L102.355 223.739
L103.337 235.552
L103.694 237.445
L103.918 237.814
L104.096 237.788
L104.275 237.556
L104.409 237.03
L104.543 235.408
L104.676 230.979
L104.855 216.24
L105.123 183.389
L105.168 185.209
L105.301 224.99
L105.569 303.216
L105.703 285.012
L106.06 237.329
L106.417 218.636
L106.864 196.86
L107.087 172.073
L107.355 135.937
L107.4 139.198
L107.533 184.436
L107.757 259.842
L107.801 259.713
L107.98 238.296
L108.248 215.541
L108.471 211.667
L108.605 211.481
L108.828 211.764
L109.319 212.515
L109.364 212.455
L109.498 211.735
L109.632 209.601
L109.81 202.992
L110.078 189.026
L110.123 189.106
L110.212 195.098
L110.569 243.66
L110.614 241.749
L111.015 218.475
L111.06 218.457
L111.149 240.804
L111.372 364.111
L111.417 360.686
L111.953 235.546
L112.355 218.251
L112.756 209.81
L112.935 204.072
L113.292 184.499
L113.337 186.888
L113.471 212.586
L113.738 270.809
L113.783 270.98
L113.917 261.451
L114.274 236.194
L114.453 233.372
L114.497 233.353
L114.587 233.893
L114.81 237.394
L115.613 251.492
L115.926 253.361
L116.06 253.459
L116.194 253.141
L116.417 251.685
L116.729 247.643
L117.131 238.951
L117.756 219.47
L118.515 191.376
L118.738 165.383
L118.917 145.141
L118.961 147.372
L119.095 188.916
L119.363 271.556
L119.497 256.517
L119.809 221.561
L120.077 213.39
L120.568 205.062
L120.747 195.174
L120.97 166.738
L121.149 147.467
L121.238 161.034
L121.55 271.04
L121.64 266.318
L122.086 221.454
L122.175 220.381
L122.22 220.52
L122.354 222.936
L122.711 236.715
L123.024 245.763
L123.157 246.624
L123.202 246.519
L123.336 245.276
L123.604 240.203
L123.738 234.893
L123.872 219.392
L124.14 151.751
L124.184 157.017
L124.318 244.454
L124.452 315.263
L124.497 314.476
L124.943 239.191
L125.032 238.882
L125.211 239.983
L126.104 247.216
L126.193 247.012
L126.327 245.372
L126.505 239.192
L126.907 212.31
L126.952 214.161
L127.086 238.705
L127.398 299.927
L127.532 290.043
L128.068 242.019
L128.514 206.285
L128.916 163.648
L128.961 164.455
L129.095 177.951
L129.72 261.743
L129.764 260.818
L129.943 241.723
L130.3 210.364
L130.568 204.154
L130.702 203.739
L130.836 204.196
L131.952 210.302
L132.041 210.346
L132.13 209.799
L132.264 206.594
L132.443 193.79
L132.71 165.422
L132.755 168.392
L132.889 211.868
L133.157 294.244
L133.291 278.744
L133.871 171.036
L133.96 148.296
L134.005 148.838
L134.094 188.828
L134.317 300.416
L134.496 242.274
L134.853 155.267
L134.942 147.789
L134.987 150.919
L135.121 196.079
L135.344 270.925
L135.389 271.214
L135.612 250.36
L135.791 243.451
L135.835 243.629
L136.014 247.918
L136.326 254.648
L136.416 255.008
L136.46 254.961
L136.594 254.178
L137.085 250.549
L137.174 250.563
L137.308 251.092
L137.532 253.134
L138.112 261.561
L138.603 267.18
L138.871 268.244
L138.96 268.187
L139.094 267.675
L139.317 265.612
L139.63 260.056
L140.031 248.414
L140.612 224.425
L141.415 182.039
L141.951 141.193
L142.04 145.691
L142.263 190.291
L142.442 207.08
L142.576 195.111
L142.888 158.426
L142.978 166.404
L143.335 243.641
L143.424 241.366
L143.96 208.723
L144.272 203.785
L144.629 198.1
L144.942 188.862
L145.254 173.293
L145.477 161.845
L145.522 162.648
L145.611 172.275
L146.013 266.966
L146.102 260.842
L146.37 210.763
L146.504 191.346
L146.549 192.018
L146.638 210.243
L146.861 267.765
L147.084 218.48
L147.129 230.156
L147.352 344.02
L147.397 340.296
L147.843 249.091
L148.334 229.177
L148.602 193.389
L148.736 182.494
L148.825 197.62
L149.138 311.089
L149.227 307.511
L149.629 270.125
L149.808 267.329
L149.986 267.073
L150.12 266.947
L150.299 266.295
L150.566 264.259
L150.968 259.223
L151.459 250.073
L152.932 219.812
L153.289 217.073
L153.691 215.58
L154.138 213.933
L154.584 211.17
L155.611 204.169
L155.834 203.783
L155.968 203.859
L156.191 204.401
L156.325 204.606
L156.414 203.842
L156.504 200.491
L156.637 183.296
L156.861 125.192
L156.905 126.614
L157.039 204.424
L157.218 287.025
L157.352 252.409
L157.62 204.332
L157.843 198.712
L158.066 197.097
L158.111 197.078
L158.2 197.417
L158.378 199.571
L158.691 203.602
L158.78 202.531
L158.959 194.402
L159.137 185.674
L159.182 186.939
L159.316 208.501
L159.628 270.911
L159.718 265.082
L159.985 222.98
L160.343 163.949
L160.432 180.847
L160.744 267.714
L160.878 270.959
L161.057 282.117
L161.101 281.929
L161.235 268.676
L161.503 231.883
L161.548 233.26
L161.682 257.861
L161.905 297.329
L161.994 292.57
L162.217 253.354
L162.53 195.699
L162.575 198.528
L162.708 243.188
L162.932 313.451
L162.976 312.345
L163.691 251.502
L164.673 226.887
L165.03 223.155
L165.253 222.599
L165.387 222.809
L165.61 223.853
L166.101 227.727
L166.548 230.682
L166.726 231.038
L166.815 230.931
L166.949 230.34
L167.172 228.038
L167.53 221.251
L167.931 214.868
L167.976 214.799
L168.021 214.925
L168.155 216.534
L168.422 224.336
L168.824 234.631
L168.913 234.889
L169.003 234.329
L169.226 230.242
L169.494 221.707
L169.628 210.07
L169.806 166.296
L169.94 132.863
L169.985 137.346
L170.119 222.942
L170.253 294.277
L170.297 293.681
L170.788 216.971
L170.833 216.995
L171.012 218.283
L172.128 227.475
L172.395 228.191
L172.485 228.145
L172.619 227.736
L172.797 226.416
L173.02 223.064
L173.244 216.565
L173.467 203.456
L173.913 162.561
L173.958 164.337
L174.092 184.335
L174.315 276.467
L174.493 317.761
L174.627 291.891
L175.074 194.796
L175.118 196.247
L175.252 221.296
L175.476 262.871
L175.52 262.445
L175.654 249.032
L176.145 164.424
L176.324 140.421
L176.413 153.908
L176.725 260.076
L176.77 258.815
L177.752 170.021
L177.797 171.176
L177.931 193.625
L178.288 272.089
L178.377 269.425
L178.734 254.235
L178.824 253.566
L178.868 253.573
L179.002 254.477
L179.27 257.071
L179.315 256.856
L179.404 254.109
L179.538 237.565
L179.761 179.383
L179.806 180.477
L179.895 221.338
L180.118 339.377
L180.252 303.781
L180.52 252.228
L180.788 241.713
L181.1 235.458
L181.189 235.093
L181.234 235.221
L181.368 236.851
L181.68 245.369
L181.948 250.717
L182.038 250.992
L182.127 250.459
L182.305 247.423
L183.154 229.651
L183.377 228.679
L183.466 228.7
L183.6 229.078
L183.868 230.714
L184.671 236.128
L184.85 236.286
L184.984 235.971
L185.207 234.516
L185.52 230.371
L185.921 221.477
L187.439 177.947
L187.618 163.218
L187.885 135.274
L187.975 148.814
L188.332 266.722
L188.376 263.577
L188.868 215.812
L189.135 210.798
L189.492 204.88
L189.671 196.859
L189.894 172.144
L190.117 147.946
L190.207 163.689
L190.519 273.944
L190.564 272.952
L191.367 205.182
L191.457 211.677
L191.635 258.159
L191.858 301.55
L191.948 296.737
L192.26 248.265
L192.796 170.2
L192.84 173.813
L192.93 210.278
L193.153 344.071
L193.198 337.991
L193.644 202.083
L193.689 202.702
L193.823 226.658
L194.09 286.19
L194.135 286.769
L194.269 278.756
L194.626 256.932
L194.805 254.676
L194.849 254.689
L194.983 255.62
L195.43 262.141
L195.742 264.866
L195.831 265.026
L195.876 264.997
L196.01 264.475
L196.233 262.254
L196.59 255.757
L197.171 239.949
L198.465 203.228
L198.867 198.046
L199.135 196.929
L199.269 196.965
L199.447 197.48
L199.849 199.696
L200.429 202.644
L200.965 204.456
L201.054 204.178
L201.188 201.87
L201.367 191.35
L201.679 158.662
L201.724 162.235
L201.858 207.532
L202.081 285.687
L202.126 285.532
L202.26 266.435
L202.527 189.442
L202.706 145.269
L202.795 182.901
L203.018 297.177
L203.197 244.601
L203.465 194.596
L203.911 136.415
L203.956 141.544
L204.134 216.3
L204.358 271.203
L204.492 261.305
L204.759 245.84
L205.161 236.34
L205.429 216.918
L205.608 205.083
L205.652 205.244
L205.741 212.686
L206.143 283.45
L206.232 281.787
L206.991 238.888
L207.17 227.066
L207.215 227.175
L207.304 235.807
L207.706 321.159
L207.795 316.235
L208.42 267.153
L209.447 212.379
L209.804 174.517
L210.027 153.342
L210.072 154.627
L210.205 178.5
L210.473 236.652
L210.518 237.138
L210.652 228.902
L211.009 206.149
L211.232 202.747
L211.321 202.657
L211.455 203.279
L211.768 206.462
L212.571 214.839
L212.795 215.389
L212.884 215.206
L213.062 214.087
L213.464 209.148
L213.687 207.634
L213.777 208
L213.911 209.996
L214.178 218.991
L214.669 235.67
L214.759 236.283
L214.803 236.157
L214.893 234.853
L215.027 229.355
L215.205 211.836
L215.562 155.098
L215.607 156.819
L215.741 187.678
L216.053 363.645
L216.143 340.605
L216.455 246.66
L216.678 235.449
L217.169 222.731
L217.348 209.574
L217.66 168.355
L217.75 173.62
L217.928 246.986
L218.107 296.61
L218.151 295.842
L218.776 250.555
L219.089 249.185
L219.401 247.234
L220.116 240.985
L220.651 234.179
L221.499 223.013
L221.767 221.689
L221.901 221.626
L222.035 221.953
L222.303 223.533
L222.705 225.806
L222.794 225.631
L222.928 224.309
L223.106 219.465
L223.33 205.251
L223.642 177.25
L223.687 177.98
L223.821 198.445
L224.088 244.41
L224.222 229.99
L224.446 206.378
L224.535 213.305
L224.847 257.051
L224.892 256.248
L225.071 240.348
L225.294 202.551
L225.606 100.743
L225.651 108.72
L225.963 255.027
L226.053 253.845
L226.231 252.186
L226.41 236.76
L226.812 202.273
L226.99 199.339
L227.079 200.4
L227.258 206.484
L227.928 233.314
L228.017 233.793
L228.061 233.773
L228.195 232.976
L228.642 227.986
L228.82 223.051
L228.999 209.708
L229.267 184.311
L229.356 199.155
L229.713 318.211
L229.758 315.099
L230.249 269.12
L230.561 263.572
L230.829 257.913
L231.008 249.433
L231.231 224.523
L231.499 189.688
L231.588 205.204
L231.9 306.816
L231.945 304.381
L232.57 239.856
L233.106 224.515
L233.552 216.056
L233.865 213.428
L234.043 213.078
L234.177 213.276
L234.4 214.299
L234.891 218.146
L235.338 221.033
L235.516 221.28
L235.65 220.901
L235.829 219.466
L236.097 215.177
L236.856 201.593
L237.034 199.982
L237.213 195.492
L237.436 188.29
L237.48 189.151
L237.57 196.837
L237.972 263.819
L238.061 259.898
L238.284 234.487
L238.463 191.282
L238.641 136.86
L238.686 139.291
L238.82 218.949
L238.954 286.081
L238.998 283.471
L239.4 181.22
L239.445 183.404
L239.579 212.077
L239.846 272.821
L239.891 273.122
L240.025 264.481
L240.427 237.665
L240.695 231.864
L240.962 229.988
L241.32 228.309
L241.498 226.145
L241.721 220.135
L241.944 207.269
L242.257 184.563
L242.302 186.144
L242.436 209.555
L242.703 264.298
L242.793 256.189
L243.06 206.001
L243.105 206.79
L243.194 227.278
L243.462 311.166
L243.552 303.407
L244.043 235.906
L244.489 214.021
L244.846 194.536
L245.114 159.644
L245.248 143.092
L245.292 143.408
L245.382 161.112
L245.694 274.126
L245.739 273.625
L246.275 237.303
L246.319 237.388
L246.498 239.087
L246.944 243.083
L247.301 244.344
L247.658 244.872
L247.837 244.923
L247.926 244.674
L248.016 243.565
L248.105 239.925
L248.239 222.52
L248.462 162.846
L248.507 163.174
L248.596 202.414
L248.819 322.516
L248.953 287.819
L249.221 236.241
L249.489 226.258
L249.801 220.497
L249.89 220.217
L249.935 220.379
L250.069 222.083
L250.381 230.728
L250.694 236.599
L250.739 236.7
L250.783 236.608
L250.917 235.307
L251.274 228.022
L251.631 222.638
L251.81 221.956
L251.899 222.086
L252.078 223.081
L252.524 227.651
L253.015 231.814
L253.283 232.673
L253.417 232.69
L253.596 232.326
L253.908 230.897
L254.578 226.468
L254.845 223.402
L255.113 217.085
L255.336 206.414
L255.604 180.552
L255.917 140.991
L255.961 141.163
L256.051 151.269
L256.542 238.715
L256.586 238.009
L256.72 219.158
L256.899 193.958
L256.988 209.918
L257.256 284.171
L257.345 274.152
L257.97 169.884
L258.015 169.893
L258.104 179.727
L258.461 249.174
L258.506 246.573
L258.729 211.234
L259.086 148.131
L259.176 163.806
L259.488 269.861
L259.533 268.953
L259.89 242.824
L259.934 242.886
L260.068 246.444
L260.515 261.337
L260.604 261.834
L260.649 261.764
L260.783 260.553
L261.05 255.059
L261.184 247.728
L261.318 226.555
L261.541 166.652
L261.586 170.316
L261.72 254.129
L261.899 328.285
L262.39 251.091
L262.434 251.091
L262.613 252.408
L263.863 263.641
L264.041 263.887
L264.175 263.697
L264.354 262.921
L264.622 260.606
L264.979 255.346
L265.47 244.16
L266.184 221.663
L267.077 194.893
L267.479 188.271
L267.791 186.124
L268.014 185.829
L268.371 185.926
L268.505 185.442
L268.684 183.401
L268.862 178.418
L269.13 162.812
L269.309 155.518
L269.398 161.282
L269.621 210.407
L269.844 235.358
L269.978 228.554
L270.336 193.127
L270.648 153.992
L270.693 157.995
L270.827 204.116
L271.005 265.344
L271.05 264.281
L271.184 222.698
L271.407 125.845
L271.452 131.07
L271.809 292.935
L271.898 288.626
L272.121 261.695
L272.835 150.318
L272.88 151.039
L272.969 170.48
L273.326 290.855
L273.505 274.469
L273.817 252.684
L274.175 231.482
L274.487 204.966
L274.532 205.559
L274.621 216.169
L275.023 300.297
L275.067 299.003
L275.558 276.214
L275.692 275.588
L275.782 275.856
L276.049 277.968
L276.407 280.27
L276.54 280.402
L276.674 280.009
L276.853 278.599
L277.121 274.503
L277.523 264.104
L278.148 240.708
L279.13 204.789
L279.576 196.034
L279.888 193.578
L280.067 193.343
L280.201 193.607
L280.469 194.926
L281.228 199.288
L281.362 199.369
L281.496 199.03
L281.674 197.823
L281.987 193.839
L282.344 189.862
L282.388 189.829
L282.478 190.303
L282.656 193.766
L282.969 206.848
L283.415 223.311
L283.638 225.218
L283.728 224.87
L283.861 222.677
L283.995 216.018
L284.129 197.105
L284.352 113.446
L284.442 90.1684
L284.486 98.1813
L284.62 229.439
L284.799 374.093
L284.888 355.961
L285.245 250.966
L285.513 235.236
L285.915 226.897
L286.138 220.6
L286.317 208.235
L286.629 171.144
L286.674 172.744
L286.763 193.287
L287.076 304.441
L287.12 302.95
L287.611 244.624
L287.968 193.282
L288.102 183.455
L288.192 197.064
L288.593 341.906
L288.683 334.072
L289.308 249.793
L289.932 198.619
L290.156 178.772
L290.2 179.884
L290.334 202.989
L290.647 262.838
L290.781 253.731
L291.138 226.672
L291.361 221.526
L291.45 221.085
L291.495 221.106
L291.629 221.896
L291.941 225.973
L292.388 231.154
L292.611 231.991
L292.7 231.968
L292.834 231.597
L293.102 229.908
L293.682 224.164
L293.816 221.583
L293.95 213.151
L294.129 174.811
L294.307 137.296
L294.396 175.165
L294.62 296.022
L294.754 261.761
L295.021 210.37
L295.245 202.722
L295.512 198.981
L295.557 198.835
L295.602 198.876
L295.691 199.578
L295.87 203.625
L296.718 229.029
L296.852 228.267
L297.566 222.288
L297.7 220.644
L297.834 215.64
L298.012 199.41
L298.191 180.353
L298.236 180.983
L298.325 198.316
L298.637 313.18
L298.682 312.565
L298.905 283.795
L299.173 262.223
L299.53 252.753
L299.843 242.691
L300.066 225.601
L300.468 167.445
L300.512 171.553
L300.691 236.092
L300.825 267.56
L300.869 266.023
L301.092 221.251
L301.226 207.343
L301.271 208.932
L301.45 239.145
L301.628 259.915
L301.673 259.556
L301.807 250.456
L302.253 217.406
L302.566 208.577
L302.878 205.256
L303.101 203.143
L303.28 199.033
L303.503 186.946
L303.682 176.104
L303.726 176.177
L303.816 184.422
L304.217 273.824
L304.307 269.951
L304.976 220.974
L305.289 212.363
L305.423 211.65
L305.512 212.333
L305.69 216.208
L306.137 226.628
L306.226 225.515
L306.36 220.104
L306.762 189.29
L306.806 191.187
L306.94 214.411
L307.119 242.692
L307.208 227.951
L307.387 190.81
L307.476 229.447
L307.655 329.718
L307.699 328.273
L308.19 239.666
L308.369 238.373
L308.592 238.113
L308.771 238.214
L308.994 238.684
L309.306 239.964
L310.288 244.521
L310.422 244.422
L310.601 243.766
L310.869 241.622
L311.226 236.849
L311.449 231.214
L311.628 220.505
L311.851 190.911
L312.029 170.655
L312.119 183.752
L312.431 285.458
L312.476 283.076
L313.19 202.809
L313.86 174.331
L314.217 131.463
L314.306 140.716
L314.663 265.767
L314.752 260.886
L315.109 231.39
L315.243 230.221
L315.377 231.509
L316.047 239.692
L316.404 241.411
L316.538 241.63
L316.583 241.602
L316.672 241.119
L316.761 239.125
L316.895 227.704
L317.118 168.775
L317.208 159.435
L317.297 197.162
L317.52 319.207
L317.654 285.31
L317.922 233.62
L318.19 224.789
L318.457 221.6
L318.502 221.627
L318.591 222.308
L318.77 226.259
L319.306 241.812
L319.395 240.529
L319.573 231.093
L319.931 198.402
L320.02 200.577
L320.6 261.315
L320.823 292.437
L320.913 287.128
L321.493 234.059
L322.029 204.66
L322.341 182.18
L322.43 190.927
L322.832 271.748
L322.877 269.711
L323.546 226.663
L323.859 221.913
L324.841 211.826
L325.243 205.27
L325.421 196.593
L325.644 170.877
L325.778 155.741
L325.823 156.02
L325.912 172.939
L326.225 283.228
L326.269 281.922
L326.939 223.829
L327.43 211.385
L327.653 195.473
L328.01 144.351
L328.1 151.131
L328.278 227.056
L328.457 273.951
L328.501 273.444
L328.903 249.099
L328.948 249.118
L329.126 251.085
L329.305 252.187
L329.394 251.776
L329.573 249.352
L329.796 243.588
L329.93 233.235
L330.108 191.525
L330.242 156.997
L330.287 160.019
L330.421 242.446
L330.6 319.422
L331.091 243.485
L331.135 243.596
L331.358 245.805
L331.894 250.682
L332.073 251.062
L332.162 250.788
L332.296 249.524
L332.474 245.445
L332.698 234.317
L332.965 217.897
L333.01 218.21
L333.099 225.544
L333.501 292.661
L333.59 289.12
L334.394 236.671
L335.421 189.392
L335.778 154.752
L335.912 147.07
L336.001 154.312
L336.403 233.453
L336.447 231.47
L337.072 191.861
L337.251 190.465
L337.34 190.68
L337.519 192.274
L338.188 199.372
L338.278 198.914
L338.412 196.758
L338.59 190.003
L338.992 162.997
L339.036 164.394
L339.17 185.649
L339.394 227.416
L339.438 226.2
L339.617 206.719
L339.661 207.227
L339.795 236.026
L339.929 257.012
L340.108 222.452
L340.152 227.451
L340.376 339.374
L340.465 329.321
L340.822 238.72
L341.135 223.74
L341.402 209.315
L341.67 179.233
L341.804 168.967
L341.893 181.509
L342.251 312.405
L342.34 306.905
L342.786 264.915
L343.099 257.291
L343.456 253.173
L343.679 252.294
L343.768 252.301
L343.902 252.653
L344.17 254.359
L345.241 262.715
L345.331 262.603
L345.509 261.664
L345.777 258.336
L346.134 250.451
L346.893 226.716
L347.518 210.478
L348.009 202.996
L348.411 199.667
L348.768 198.193
L349.08 197.685
L349.348 197.629
L349.884 197.665
L350.063 197.307
L350.286 196.22
L350.598 193.22
L351.491 181.294
L351.67 178.418
L351.759 182.079
L351.893 202.554
L352.205 256.806
L352.295 250.388
L352.652 198.423
L352.741 201.951
L352.92 220.619
L352.964 217.232
L353.187 158.524
L353.232 164.301
L353.678 310.887
L353.723 313.182
L353.768 311.933
L353.902 290.717
L354.437 195.167
L354.527 191.951
L354.616 200.855
L354.973 273.78
L355.018 272.101
L355.196 249.401
L355.598 179.164
L355.643 179.835
L355.732 199.353
L356.044 306.916
L356.089 305.465
L356.58 268.526
L356.714 267.923
L356.937 268.049
L357.071 267.511
L357.294 265.269
L357.696 258.458
L359.348 227.694
L359.705 225.414
L359.928 225.066
L360.062 225.162
L360.33 225.768
L360.776 226.785
L360.955 226.805
L361.133 226.478
L361.401 225.288
L361.803 222.114
L362.428 215.072
L362.562 211.274
L362.696 198.682
L362.919 138.044
L363.008 127.409
L363.097 163.573
L363.321 285.71
L363.455 251.744
L363.722 198.559
L363.99 187.873
L364.749 166.069
L364.794 166.811
L364.883 173.384
L365.062 213.314
L365.329 265.277
L365.374 265.683
L365.508 258.882
L365.999 228.661
L366.312 221.139
L366.669 215.52
L366.847 205.824
L367.16 170.064
L367.249 175.811
L367.428 247.645
L367.606 291.23
L367.695 281.151
L368.097 211.973
L368.142 213.678
L368.276 240.199
L368.544 293.797
L368.633 289.725
L368.99 244.2
L369.392 177.085
L369.481 184.196
L369.838 293.11
L369.927 283.731
L370.329 235.319
L371.043 187.164
L371.222 173.376
L371.267 174.025
L371.356 184.823
L371.758 267.637
L371.802 266.11
L372.338 239.66
L372.561 238.025
L372.829 237.727
L372.963 237.414
L373.141 236.372
L373.409 233.067
L374.034 223.818
L374.124 224.178
L374.257 226.289
L374.525 235.382
L374.927 248.401
L375.061 249.431
L375.106 249.358
L375.24 248.093
L375.507 242.323
L375.686 233.074
L375.82 211.666
L376.043 149.21
L376.088 151.307
L376.222 231.08
L376.4 307.227
L376.936 222.5
L377.204 220.945
L377.472 220.453
L377.605 220.51
L377.784 220.919
L378.052 222.261
L378.409 225.384
L379.57 236.858
L379.659 236.724
L379.837 235.686
L380.105 232.348
L380.373 225.952
L380.552 216.116
L380.775 188.508
L380.998 162.509
L381.087 178.462
L381.4 276.997
L381.444 273.775
L382.069 201.37
L382.828 170.128
L383.096 129.784
L383.185 119.368
L383.23 119.493
L383.319 136.744
L383.676 243.165
L383.9 270.604
L384.034 280.911
L384.078 280.631
L384.212 272.145
L384.882 207.189
L384.926 209.821
L385.06 237.352
L385.328 292.715
L385.373 292.012
L385.507 277.734
L385.685 233.787
L385.908 168.378
L385.998 200.049
L386.221 311.842
L386.355 268.744
L386.623 192.791
L386.712 188.717
L386.801 198.564
L387.158 269.529
L387.203 268.335
L387.694 244.515
L387.828 245.949
L388.23 251.259
L388.274 251.318
L388.319 251.257
L388.453 250.474
L388.855 245.708
L389.435 239.965
L389.926 236.997
L390.239 236.129
L390.417 236.065
L390.596 236.299
L390.908 237.23
L391.399 238.702
L391.578 238.735
L391.712 238.439
L391.935 237.184
L392.247 233.613
L392.649 226.036
L394.39 184.524
L394.613 159.635
L394.747 145.472
L394.792 146.28
L394.881 164.457
L395.194 274.233
L395.238 272.627
L395.952 207.81
L396.265 188.777
L396.577 149.684
L396.801 128.121
L396.89 133.097
L397.024 161.092
L397.381 301.316
L397.47 297.252
L397.917 249.84
L398.363 236.681
L398.542 229.419
L398.676 214.281
L398.943 144.03
L399.033 161.877
L399.3 306.443
L399.345 298.817
L399.702 227.398
L400.193 201.651
L400.238 201.691
L400.327 209.632
L400.55 275.243
L400.729 305.396
L400.774 305.514
L400.908 297.825
L401.265 278.065
L401.532 273.7
L402.247 267.811
L402.559 260.362
L402.872 246.484
L403.184 219.952
L403.497 188.778
L403.541 190.189
L403.675 213.985
L403.943 267.113
L403.988 266.421
L404.166 249.404
L404.568 215.38
L404.925 202.161
L405.282 195.799
L405.55 193.977
L405.684 193.875
L405.818 194.252
L406.041 195.789
L406.488 200.954
L407.112 207.664
L407.514 209.737
L407.827 210.649
L407.916 210.437
L408.05 208.48
L408.184 202.364
L408.362 181.734
L408.675 128.209
L408.72 133.411
L408.853 198.716
L409.077 361.48
L409.121 359.747
L409.702 221.227
L410.103 207.827
L410.371 199.973
L410.55 186.723
L410.773 168.84
L410.862 182.322
L411.219 307.83
L411.309 300.775
L411.71 260.3
L411.934 255.222
L412.246 253.019
L412.603 251.855
L412.826 251.718
L413.005 251.885
L413.675 252.839
L413.719 252.807
L413.898 252.405
L414.121 251.1
L414.389 247.926
L414.657 242.137
L414.924 231.527
L415.237 208.356
L415.416 198.538
L415.505 203.374
L415.728 249.649
L415.907 270.544
L415.951 269.96
L416.13 256.475
L417.112 168.687
L417.201 174.835
L417.603 252.369
L417.692 246.943
L418.317 197.199
L418.63 171.216
L418.853 154.726
L418.942 161.732
L419.299 239.92
L419.388 237.668
L419.969 198.455
L420.013 198.495
L420.147 200.93
L420.415 212.612
L420.817 228.641
L421.04 231.048
L421.085 231.045
L421.219 230.368
L421.353 228.586
L421.487 222.81
L421.62 203.361
L421.844 140.83
L421.888 141.534
L422.022 213.655
L422.156 276.696
L422.201 272.178
L422.424 208.034
L422.469 212.362
L422.781 306.205
L422.87 299.402
L423.272 253.408
L423.54 245.592
L424.031 236.122
L424.21 224.836
L424.567 182.327
L424.611 185.277
L424.745 229.469
L425.013 311.911
L425.147 298.493
L425.46 269.606
L425.683 264.757
L426.174 258.751
L426.665 247.77
L427.781 216.072
L428.093 201.6
L428.495 174.524
L428.54 175.119
L428.629 183.389
L429.031 252.525
L429.075 251.81
L429.299 237.816
L429.611 223.493
L429.924 218.196
L430.37 214.822
L430.816 211.044
L431.129 206.987
L431.263 202.837
L431.397 189.822
L431.62 127.4
L431.709 114.427
L431.798 147.218
L432.022 262.835
L432.156 220.938
L432.423 152.692
L432.468 152.946
L432.557 165.295
L432.914 242.451
L432.959 241.916
L433.316 226.955
L433.405 227.504
L433.584 232.517
L433.986 243.849
L434.075 244.388
L434.12 244.356
L434.254 243.226
L434.521 237.934
L435.102 221.316
L435.37 207.424
L435.771 176.383
L435.816 178.363
L435.995 207.03
L436.307 273.591
L436.53 342.753
L436.575 341.944
L436.753 313.152
L437.066 274.284
L437.378 260.914
L437.78 245.189
L438.003 226.416
L438.36 172.435
L438.45 180.459
L438.807 287.977
L438.852 284.234
L439.343 230.178
L439.61 223.76
L440.057 218.608
L440.369 216.958
L440.548 216.797
L440.682 216.998
L440.95 218.009
L441.708 221.269
L441.842 221.236
L442.021 220.699
L442.512 218.203
L442.601 218.38
L442.735 219.686
L442.914 223.966
L443.271 240.048
L443.628 252.614
L443.717 253.356
L443.762 253.334
L443.896 251.871
L444.164 244.51
L444.342 235.797
L444.476 219.276
L444.744 144.78
L444.833 160.096
L445.101 300.993
L445.146 292.951
L445.503 219.356
L445.681 215.795
L445.949 214.966
L446.262 214.18
L446.485 212.773
L446.664 210.169
L446.887 202.948
L447.199 187.271
L447.244 187.381
L447.333 193.663
L447.512 233.523
L447.78 276.745
L447.824 276.529
L448.003 267.744
L448.449 248.074
L448.806 231.732
L449.074 208.185
L449.387 178.758
L449.476 185.681
L449.744 225.225
L449.788 222.364
L449.967 199.246
L450.012 200.449
L450.145 237.523
L450.324 283.803
L450.369 282.11
L450.547 245.991
L450.994 163.537
L451.038 162.041
L451.038 162.041
L451.038 162.041
L451.128 168.725
L451.485 240.565
L451.574 235.658
L451.842 194.38
L452.154 143.519
L452.199 146.18
L452.333 190.736
L452.601 273.97
L452.735 262.77
L453.002 242.884
L453.092 241.76
L453.136 241.858
L453.315 244.436
L453.761 250.819
L453.984 251.705
L454.074 251.331
L454.163 249.487
L454.297 238.605
L454.476 193.927
L454.609 169.119
L454.699 203.965
L454.922 330.11
L455.011 312.569
L455.324 245.868
L455.547 238.339
L455.859 234.428
L455.904 234.407
L455.993 234.939
L456.172 238.476
L456.886 259.32
L456.931 259.29
L457.065 258.056
L457.332 252.248
L458.002 237.279
L458.448 231.93
L458.984 228.029
L459.431 224.754
L459.654 221.465
L459.877 214.675
L460.145 198.054
L460.323 187.465
L460.368 187.545
L460.457 194.329
L460.859 262.12
L460.948 258.993
L461.663 214.158
L462.243 197.676
L462.779 187.44
L463.18 181.303
L463.359 172.413
L463.582 145.886
L463.716 132.276
L463.761 133.947
L463.895 172.909
L464.118 251.397
L464.162 251.081
L464.296 228.849
L464.609 175.484
L464.653 176.525
L464.787 201.602
L465.055 258.323
L465.1 257.94
L465.234 246.569
L465.948 156.944
L465.993 160.663
L466.127 208.11
L466.394 298.172
L466.484 292.114
L466.93 251.103
L467.287 232.929
L467.421 209.285
L467.689 135.37
L467.734 146.531
L468.001 280.004
L468.046 277.321
L468.135 270.405
L468.18 271.339
L468.448 300.29
L468.537 298.403
L469.073 272.482
L469.296 270.654
L469.43 270.53
L469.608 270.845
L470.233 272.25
L470.367 272.219
L470.546 271.845
L470.769 270.706
L471.037 268.112
L471.394 262.168
L471.84 250.457
L472.51 225.838
L473.492 190.486
L473.894 182.632
L474.162 180.655
L474.251 180.59
L474.385 181.015
L474.608 182.95
L475.01 188.954
L475.858 201.705
L476.751 210.684
L476.885 211.332
L476.974 210.43
L477.063 206.711
L477.197 188.653
L477.42 104.492
L477.51 86.1255
L477.599 129.368
L477.867 360.045
L477.912 355.495
L478.492 215.931
L479.072 170.55
L479.117 171.321
L479.251 187.064
L479.519 229.613
L479.608 223.758
L479.742 210.206
L479.786 211.571
L479.92 250.014
L480.144 317.862
L480.188 316.653
L480.902 254.324
L481.17 243.08
L481.572 211.516
L481.661 215.24
L481.795 244.511
L482.063 301.472
L482.108 301.21
L482.286 286.702
L483.134 210.091
L483.179 208.186
L483.224 208.637
L483.313 219.011
L483.67 292.56
L483.715 291.129
L483.983 263.998
L484.34 239.406
L484.697 228.285
L485.054 222.968
L485.456 220.244
L486.17 216.259
L486.84 212.544
L487.732 208.915
L488.089 204.761
L488.447 201.368
L488.491 201.391
L488.58 201.946
L488.759 205.422
L489.072 217.868
L489.429 229.961
L489.563 231.053
L489.607 230.966
L489.741 229.565
L490.009 223.263
L490.188 213.91
L490.321 193.001
L490.545 130.037
L490.589 131.001
L490.723 207.246
L490.857 282.333
L490.902 282.113
L491.08 218.167
L491.304 160.803
L491.348 161.387
L491.437 181.436
L491.705 277.704
L491.75 277.25
L491.884 255.659
L492.196 204.695
L492.241 204.365
L492.33 212.405
L492.687 273.957
L492.732 273.716
L492.866 265.344
L493.268 219.582
L493.536 182.784
L493.58 185.586
L493.714 229.651
L493.982 309.813
L494.116 295.581
L494.428 264.932
L494.741 256.176
L495.143 245.774
L495.991 215.323
L496.348 197.437
L496.75 167.513
L496.794 168.796
L496.928 192.084
L497.241 266.952
L497.285 267.328
L497.419 259.826
L497.776 238.93
L498.044 233.485
L498.357 231.054
L498.892 227.527
L499.205 223.907
L499.473 218.409
L499.74 207.637
L499.964 188.418
L500.187 142.318
L500.365 111.176
L500.455 146.167
L500.723 344.714
L500.767 338.007
L501.214 224.766
L501.481 213.286
L501.705 210.529
L501.794 211.104
L501.972 215.237
L502.821 242.498
L502.91 242.121
L503.133 239.41
L503.758 231.387
L504.026 230.093
L504.204 229.92
L504.383 229.938
L504.472 229.594
L504.606 227.432
L504.74 221.116
L504.963 196.075
L505.097 183.125
L505.142 184.983
L505.276 224.773
L505.544 309.688
L505.678 294.37
L506.035 252.177
L506.347 240.158
L506.794 224.454
L507.017 203.781
L507.329 160.482
L507.374 163.585
L507.508 208.087
L507.731 280.377
L507.776 279.554
L507.999 249.291
L508.267 227.188
L508.535 221.177
L508.981 217.085
L509.293 215.614
L509.517 215.299
L509.963 215.08
L510.097 214.436
L510.276 212.233
L510.454 207.198
L510.722 191.009
L510.945 179.751
L511.034 185.966
L511.481 258.507
L511.57 256.375
L511.838 249.501
L511.927 250.13
L512.24 257.233
L512.463 259.369
L512.552 258.748
L512.731 255.183
L512.999 244.189
L513.132 230.454
L513.311 182.048
L513.49 134.051
L513.579 166.896
L513.757 264.641
L513.802 264.287
L513.981 232.38
L514.025 232.929
L514.293 268.509
L514.382 266.13
L515.052 204.334
L515.364 178.852
L515.454 185.714
L515.677 247.653
L515.856 272.182
L515.945 268.664
L516.436 237.808
L516.704 233.774
L516.927 233.143
L517.061 233.245
L517.463 233.656
L517.596 233.418
L517.82 232.308
L518.088 229.704
L518.311 225.2
L518.355 223.614
L518.355 223.614" style="fill:none;stroke:#0000ff;"/>
   </g>
   <g id="matplotlib.axis_1">
    <g id="xtick_1">
     <g id="line2d_2">
      <defs>
       <path d="
M0 0
L0 -4" id="m0012dd4eef" style="stroke:#000000;stroke-linecap:butt;stroke-width:0.5;"/>
      </defs>
      <g>
       <use style="stroke:#000000;stroke-linecap:butt;stroke-width:0.5;" x="72.0" xlink:href="#m0012dd4eef" y="388.8"/>
      </g>
     </g>
     <g id="line2d_3">
      <defs>
       <path d="
M0 0
L0 4" id="m476344969c" style="stroke:#000000;stroke-linecap:butt;stroke-width:0.5;"/>
      </defs>
      <g>
       <use style="stroke:#000000;stroke-linecap:butt;stroke-width:0.5;" x="72.0" xlink:href="#m476344969c" y="43.2"/>
      </g>
     </g>
     <g id="text_1">
      <!-- 0 -->
      <defs>
       <path d="
M31.7812 66.4062
Q24.1719 66.4062 20.3281 58.9062
Q16.5 51.4219 16.5 36.375
Q16.5 21.3906 20.3281 13.8906
Q24.1719 6.39062 31.7812 6.39062
Q39.4531 6.39062 43.2812 13.8906
Q47.125 21.3906 47.125 36.375
Q47.125 51.4219 43.2812 58.9062
Q39.4531 66.4062 31.7812 66.4062
M31.7812 74.2188
Q44.0469 74.2188 50.5156 64.5156
Q56.9844 54.8281 56.9844 36.375
Q56.9844 17.9688 50.5156 8.26562
Q44.0469 -1.42188 31.7812 -1.42188
Q19.5312 -1.42188 13.0625 8.26562
Q6.59375 17.9688 6.59375 36.375
Q6.59375 54.8281 13.0625 64.5156
Q19.5312 74.2188 31.7812 74.2188" id="DejaVuSans-30"/>
      </defs>
      <g transform="translate(68.9765625 401.70625)scale(0.12 -0.12)">
       <use xlink:href="#DejaVuSans-30"/>
      </g>
     </g>
    </g>
    <g id="xtick_2">
     <g id="line2d_4">
      <g>
       <use style="stroke:#000000;stroke-linecap:butt;stroke-width:0.5;" x="161.28" xlink:href="#m0012dd4eef" y="388.8"/>
      </g>
     </g>
     <g id="line2d_5">
      <g>
       <use style="stroke:#000000;stroke-linecap:butt;stroke-width:0.5;" x="161.28" xlink:href="#m476344969c" y="43.2"/>
      </g>
     </g>
     <g id="text_2">
      <!-- 2000 -->
      <defs>
       <path d="
M19.1875 8.29688
L53.6094 8.29688
L53.6094 0
L7.32812 0
L7.32812 8.29688
Q12.9375 14.1094 22.625 23.8906
Q32.3281 33.6875 34.8125 36.5312
Q39.5469 41.8438 41.4219 45.5312
Q43.3125 49.2188 43.3125 52.7812
Q43.3125 58.5938 39.2344 62.25
Q35.1562 65.9219 28.6094 65.9219
Q23.9688 65.9219 18.8125 64.3125
Q13.6719 62.7031 7.8125 59.4219
L7.8125 69.3906
Q13.7656 71.7812 18.9375 73
Q24.125 74.2188 28.4219 74.2188
Q39.75 74.2188 46.4844 68.5469
Q53.2188 62.8906 53.2188 53.4219
Q53.2188 48.9219 51.5312 44.8906
Q49.8594 40.875 45.4062 35.4062
Q44.1875 33.9844 37.6406 27.2188
Q31.1094 20.4531 19.1875 8.29688" id="DejaVuSans-32"/>
      </defs>
      <g transform="translate(146.848125 401.70625)scale(0.12 -0.12)">
       <use xlink:href="#DejaVuSans-32"/>
       <use x="63.623046875" xlink:href="#DejaVuSans-30"/>
       <use x="127.24609375" xlink:href="#DejaVuSans-30"/>
       <use x="190.869140625" xlink:href="#DejaVuSans-30"/>
      </g>
     </g>
    </g>
    <g id="xtick_3">
     <g id="line2d_6">
      <g>
       <use style="stroke:#000000;stroke-linecap:butt;stroke-width:0.5;" x="250.56" xlink:href="#m0012dd4eef" y="388.8"/>
      </g>
     </g>
     <g id="line2d_7">
      <g>
       <use style="stroke:#000000;stroke-linecap:butt;stroke-width:0.5;" x="250.56" xlink:href="#m476344969c" y="43.2"/>
      </g>
     </g>
     <g id="text_3">
      <!-- 4000 -->
      <defs>
       <path d="
M37.7969 64.3125
L12.8906 25.3906
L37.7969 25.3906
z

M35.2031 72.9062
L47.6094 72.9062
L47.6094 25.3906
L58.0156 25.3906
L58.0156 17.1875
L47.6094 17.1875
L47.6094 0
L37.7969 0
L37.7969 17.1875
L4.89062 17.1875
L4.89062 26.7031
z
" id="DejaVuSans-34"/>
      </defs>
      <g transform="translate(235.981875 401.70625)scale(0.12 -0.12)">
       <use xlink:href="#DejaVuSans-34"/>
       <use x="63.623046875" xlink:href="#DejaVuSans-30"/>
       <use x="127.24609375" xlink:href="#DejaVuSans-30"/>
       <use x="190.869140625" xlink:href="#DejaVuSans-30"/>
      </g>
     </g>
    </g>
    <g id="xtick_4">
     <g id="line2d_8">
      <g>
       <use style="stroke:#000000;stroke-linecap:butt;stroke-width:0.5;" x="339.84" xlink:href="#m0012dd4eef" y="388.8"/>
      </g>
     </g>
     <g id="line2d_9">
      <g>
       <use style="stroke:#000000;stroke-linecap:butt;stroke-width:0.5;" x="339.84" xlink:href="#m476344969c" y="43.2"/>
      </g>
     </g>
     <g id="text_4">
      <!-- 6000 -->
      <defs>
       <path d="
M33.0156 40.375
Q26.375 40.375 22.4844 35.8281
Q18.6094 31.2969 18.6094 23.3906
Q18.6094 15.5312 22.4844 10.9531
Q26.375 6.39062 33.0156 6.39062
Q39.6562 6.39062 43.5312 10.9531
Q47.4062 15.5312 47.4062 23.3906
Q47.4062 31.2969 43.5312 35.8281
Q39.6562 40.375 33.0156 40.375
M52.5938 71.2969
L52.5938 62.3125
Q48.875 64.0625 45.0938 64.9844
Q41.3125 65.9219 37.5938 65.9219
Q27.8281 65.9219 22.6719 59.3281
Q17.5312 52.7344 16.7969 39.4062
Q19.6719 43.6562 24.0156 45.9219
Q28.375 48.1875 33.5938 48.1875
Q44.5781 48.1875 50.9531 41.5156
Q57.3281 34.8594 57.3281 23.3906
Q57.3281 12.1562 50.6875 5.35938
Q44.0469 -1.42188 33.0156 -1.42188
Q20.3594 -1.42188 13.6719 8.26562
Q6.98438 17.9688 6.98438 36.375
Q6.98438 53.6562 15.1875 63.9375
Q23.3906 74.2188 37.2031 74.2188
Q40.9219 74.2188 44.7031 73.4844
Q48.4844 72.75 52.5938 71.2969" id="DejaVuSans-36"/>
      </defs>
      <g transform="translate(325.3875 401.70625)scale(0.12 -0.12)">
       <use xlink:href="#DejaVuSans-36"/>
       <use x="63.623046875" xlink:href="#DejaVuSans-30"/>
       <use x="127.24609375" xlink:href="#DejaVuSans-30"/>
       <use x="190.869140625" xlink:href="#DejaVuSans-30"/>
      </g>
     </g>
    </g>
    <g id="xtick_5">
     <g id="line2d_10">
      <g>
       <use style="stroke:#000000;stroke-linecap:butt;stroke-width:0.5;" x="429.12" xlink:href="#m0012dd4eef" y="388.8"/>
      </g>
     </g>
     <g id="line2d_11">
      <g>
       <use style="stroke:#000000;stroke-linecap:butt;stroke-width:0.5;" x="429.12" xlink:href="#m476344969c" y="43.2"/>
      </g>
     </g>
     <g id="text_5">
      <!-- 8000 -->
      <defs>
       <path d="
M31.7812 34.625
Q24.75 34.625 20.7188 30.8594
Q16.7031 27.0938 16.7031 20.5156
Q16.7031 13.9219 20.7188 10.1562
Q24.75 6.39062 31.7812 6.39062
Q38.8125 6.39062 42.8594 10.1719
Q46.9219 13.9688 46.9219 20.5156
Q46.9219 27.0938 42.8906 30.8594
Q38.875 34.625 31.7812 34.625
M21.9219 38.8125
Q15.5781 40.375 12.0312 44.7188
Q8.5 49.0781 8.5 55.3281
Q8.5 64.0625 14.7188 69.1406
Q20.9531 74.2188 31.7812 74.2188
Q42.6719 74.2188 48.875 69.1406
Q55.0781 64.0625 55.0781 55.3281
Q55.0781 49.0781 51.5312 44.7188
Q48 40.375 41.7031 38.8125
Q48.8281 37.1562 52.7969 32.3125
Q56.7812 27.4844 56.7812 20.5156
Q56.7812 9.90625 50.3125 4.23438
Q43.8438 -1.42188 31.7812 -1.42188
Q19.7344 -1.42188 13.25 4.23438
Q6.78125 9.90625 6.78125 20.5156
Q6.78125 27.4844 10.7812 32.3125
Q14.7969 37.1562 21.9219 38.8125
M18.3125 54.3906
Q18.3125 48.7344 21.8438 45.5625
Q25.3906 42.3906 31.7812 42.3906
Q38.1406 42.3906 41.7188 45.5625
Q45.3125 48.7344 45.3125 54.3906
Q45.3125 60.0625 41.7188 63.2344
Q38.1406 66.4062 31.7812 66.4062
Q25.3906 66.4062 21.8438 63.2344
Q18.3125 60.0625 18.3125 54.3906" id="DejaVuSans-38"/>
      </defs>
      <g transform="translate(414.6553125 401.70625)scale(0.12 -0.12)">
       <use xlink:href="#DejaVuSans-38"/>
       <use x="63.623046875" xlink:href="#DejaVuSans-30"/>
       <use x="127.24609375" xlink:href="#DejaVuSans-30"/>
       <use x="190.869140625" xlink:href="#DejaVuSans-30"/>
      </g>
     </g>
    </g>
    <g id="xtick_6">
     <g id="line2d_12">
      <g>
       <use style="stroke:#000000;stroke-linecap:butt;stroke-width:0.5;" x="518.4" xlink:href="#m0012dd4eef" y="388.8"/>
      </g>
     </g>
     <g id="line2d_13">
      <g>
       <use style="stroke:#000000;stroke-linecap:butt;stroke-width:0.5;" x="518.4" xlink:href="#m476344969c" y="43.2"/>
      </g>
     </g>
     <g id="text_6">
      <!-- 10000 -->
      <defs>
       <path d="
M12.4062 8.29688
L28.5156 8.29688
L28.5156 63.9219
L10.9844 60.4062
L10.9844 69.3906
L28.4219 72.9062
L38.2812 72.9062
L38.2812 8.29688
L54.3906 8.29688
L54.3906 0
L12.4062 0
z
" id="DejaVuSans-31"/>
      </defs>
      <g transform="translate(500.37 401.70625)scale(0.12 -0.12)">
       <use xlink:href="#DejaVuSans-31"/>
       <use x="63.623046875" xlink:href="#DejaVuSans-30"/>
       <use x="127.24609375" xlink:href="#DejaVuSans-30"/>
       <use x="190.869140625" xlink:href="#DejaVuSans-30"/>
       <use x="254.4921875" xlink:href="#DejaVuSans-30"/>
      </g>
     </g>
    </g>
   </g>
   <g id="matplotlib.axis_2">
    <g id="ytick_1">
     <g id="line2d_14">
      <defs>
       <path d="
M0 0
L4 0" id="me8a85f7bf6" style="stroke:#000000;stroke-linecap:butt;stroke-width:0.5;"/>
      </defs>
      <g>
       <use style="stroke:#000000;stroke-linecap:butt;stroke-width:0.5;" x="72.0" xlink:href="#me8a85f7bf6" y="388.8"/>
      </g>
     </g>
     <g id="line2d_15">
      <defs>
       <path d="
M0 0
L-4 0" id="m1a32005dea" style="stroke:#000000;stroke-linecap:butt;stroke-width:0.5;"/>
      </defs>
      <g>
       <use style="stroke:#000000;stroke-linecap:butt;stroke-width:0.5;" x="518.4" xlink:href="#m1a32005dea" y="388.8"/>
      </g>
     </g>
     <g id="text_7">
      <!-- 1.56 -->
      <defs>
       <path d="
M10.7969 72.9062
L49.5156 72.9062
L49.5156 64.5938
L19.8281 64.5938
L19.8281 46.7344
Q21.9688 47.4688 24.1094 47.8281
Q26.2656 48.1875 28.4219 48.1875
Q40.625 48.1875 47.75 41.5
Q54.8906 34.8125 54.8906 23.3906
Q54.8906 11.625 47.5625 5.09375
Q40.2344 -1.42188 26.9062 -1.42188
Q22.3125 -1.42188 17.5469 -0.640625
Q12.7969 0.140625 7.71875 1.70312
L7.71875 11.625
Q12.1094 9.23438 16.7969 8.0625
Q21.4844 6.89062 26.7031 6.89062
Q35.1562 6.89062 40.0781 11.3281
Q45.0156 15.7656 45.0156 23.3906
Q45.0156 31 40.0781 35.4375
Q35.1562 39.8906 26.7031 39.8906
Q22.75 39.8906 18.8125 39.0156
Q14.8906 38.1406 10.7969 36.2812
z
" id="DejaVuSans-35"/>
       <path d="
M10.6875 12.4062
L21 12.4062
L21 0
L10.6875 0
z
" id="DejaVuSans-2e"/>
      </defs>
      <g transform="translate(43.355 393.1678125)scale(0.12 -0.12)">
       <use xlink:href="#DejaVuSans-31"/>
       <use x="63.623046875" xlink:href="#DejaVuSans-2e"/>
       <use x="95.41015625" xlink:href="#DejaVuSans-35"/>
       <use x="159.033203125" xlink:href="#DejaVuSans-36"/>
      </g>
     </g>
    </g>
    <g id="ytick_2">
     <g id="line2d_16">
      <g>
       <use style="stroke:#000000;stroke-linecap:butt;stroke-width:0.5;" x="72.0" xlink:href="#me8a85f7bf6" y="345.6"/>
      </g>
     </g>
     <g id="line2d_17">
      <g>
       <use style="stroke:#000000;stroke-linecap:butt;stroke-width:0.5;" x="518.4" xlink:href="#m1a32005dea" y="345.6"/>
      </g>
     </g>
     <g id="text_8">
      <!-- 1.58 -->
      <g transform="translate(43.420625 349.9678125)scale(0.12 -0.12)">
       <use xlink:href="#DejaVuSans-31"/>
       <use x="63.623046875" xlink:href="#DejaVuSans-2e"/>
       <use x="95.41015625" xlink:href="#DejaVuSans-35"/>
       <use x="159.033203125" xlink:href="#DejaVuSans-38"/>
      </g>
     </g>
    </g>
    <g id="ytick_3">
     <g id="line2d_18">
      <g>
       <use style="stroke:#000000;stroke-linecap:butt;stroke-width:0.5;" x="72.0" xlink:href="#me8a85f7bf6" y="302.4"/>
      </g>
     </g>
     <g id="line2d_19">
      <g>
       <use style="stroke:#000000;stroke-linecap:butt;stroke-width:0.5;" x="518.4" xlink:href="#m1a32005dea" y="302.4"/>
      </g>
     </g>
     <g id="text_9">
      <!-- 1.60 -->
      <g transform="translate(43.39625 306.7678125)scale(0.12 -0.12)">
       <use xlink:href="#DejaVuSans-31"/>
       <use x="63.623046875" xlink:href="#DejaVuSans-2e"/>
       <use x="95.41015625" xlink:href="#DejaVuSans-36"/>
       <use x="159.033203125" xlink:href="#DejaVuSans-30"/>
      </g>
     </g>
    </g>
    <g id="ytick_4">
     <g id="line2d_20">
      <g>
       <use style="stroke:#000000;stroke-linecap:butt;stroke-width:0.5;" x="72.0" xlink:href="#me8a85f7bf6" y="259.2"/>
      </g>
     </g>
     <g id="line2d_21">
      <g>
       <use style="stroke:#000000;stroke-linecap:butt;stroke-width:0.5;" x="518.4" xlink:href="#m1a32005dea" y="259.2"/>
      </g>
     </g>
     <g id="text_10">
      <!-- 1.62 -->
      <g transform="translate(43.80125 263.5678125)scale(0.12 -0.12)">
       <use xlink:href="#DejaVuSans-31"/>
       <use x="63.623046875" xlink:href="#DejaVuSans-2e"/>
       <use x="95.41015625" xlink:href="#DejaVuSans-36"/>
       <use x="159.033203125" xlink:href="#DejaVuSans-32"/>
      </g>
     </g>
    </g>
    <g id="ytick_5">
     <g id="line2d_22">
      <g>
       <use style="stroke:#000000;stroke-linecap:butt;stroke-width:0.5;" x="72.0" xlink:href="#me8a85f7bf6" y="216.0"/>
      </g>
     </g>
     <g id="line2d_23">
      <g>
       <use style="stroke:#000000;stroke-linecap:butt;stroke-width:0.5;" x="518.4" xlink:href="#m1a32005dea" y="216.0"/>
      </g>
     </g>
     <g id="text_11">
      <!-- 1.64 -->
      <g transform="translate(43.2725 220.3678125)scale(0.12 -0.12)">
       <use xlink:href="#DejaVuSans-31"/>
       <use x="63.623046875" xlink:href="#DejaVuSans-2e"/>
       <use x="95.41015625" xlink:href="#DejaVuSans-36"/>
       <use x="159.033203125" xlink:href="#DejaVuSans-34"/>
      </g>
     </g>
    </g>
    <g id="ytick_6">
     <g id="line2d_24">
      <g>
       <use style="stroke:#000000;stroke-linecap:butt;stroke-width:0.5;" x="72.0" xlink:href="#me8a85f7bf6" y="172.8"/>
      </g>
     </g>
     <g id="line2d_25">
      <g>
       <use style="stroke:#000000;stroke-linecap:butt;stroke-width:0.5;" x="518.4" xlink:href="#m1a32005dea" y="172.8"/>
      </g>
     </g>
     <g id="text_12">
      <!-- 1.66 -->
      <g transform="translate(43.355 177.1678125)scale(0.12 -0.12)">
       <use xlink:href="#DejaVuSans-31"/>
       <use x="63.623046875" xlink:href="#DejaVuSans-2e"/>
       <use x="95.41015625" xlink:href="#DejaVuSans-36"/>
       <use x="159.033203125" xlink:href="#DejaVuSans-36"/>
      </g>
     </g>
    </g>
    <g id="ytick_7">
     <g id="line2d_26">
      <g>
       <use style="stroke:#000000;stroke-linecap:butt;stroke-width:0.5;" x="72.0" xlink:href="#me8a85f7bf6" y="129.6"/>
      </g>
     </g>
     <g id="line2d_27">
      <g>
       <use style="stroke:#000000;stroke-linecap:butt;stroke-width:0.5;" x="518.4" xlink:href="#m1a32005dea" y="129.6"/>
      </g>
     </g>
     <g id="text_13">
      <!-- 1.68 -->
      <g transform="translate(43.420625 133.9678125)scale(0.12 -0.12)">
       <use xlink:href="#DejaVuSans-31"/>
       <use x="63.623046875" xlink:href="#DejaVuSans-2e"/>
       <use x="95.41015625" xlink:href="#DejaVuSans-36"/>
       <use x="159.033203125" xlink:href="#DejaVuSans-38"/>
      </g>
     </g>
    </g>
    <g id="ytick_8">
     <g id="line2d_28">
      <g>
       <use style="stroke:#000000;stroke-linecap:butt;stroke-width:0.5;" x="72.0" xlink:href="#me8a85f7bf6" y="86.4"/>
      </g>
     </g>
     <g id="line2d_29">
      <g>
       <use style="stroke:#000000;stroke-linecap:butt;stroke-width:0.5;" x="518.4" xlink:href="#m1a32005dea" y="86.4"/>
      </g>
     </g>
     <g id="text_14">
      <!-- 1.70 -->
      <defs>
       <path d="
M8.20312 72.9062
L55.0781 72.9062
L55.0781 68.7031
L28.6094 0
L18.3125 0
L43.2188 64.5938
L8.20312 64.5938
z
" id="DejaVuSans-37"/>
      </defs>
      <g transform="translate(43.39625 90.7678125)scale(0.12 -0.12)">
       <use xlink:href="#DejaVuSans-31"/>
       <use x="63.623046875" xlink:href="#DejaVuSans-2e"/>
       <use x="95.41015625" xlink:href="#DejaVuSans-37"/>
       <use x="159.033203125" xlink:href="#DejaVuSans-30"/>
      </g>
     </g>
    </g>
    <g id="ytick_9">
     <g id="line2d_30">
      <g>
       <use style="stroke:#000000;stroke-linecap:butt;stroke-width:0.5;" x="72.0" xlink:href="#me8a85f7bf6" y="43.2"/>
      </g>
     </g>
     <g id="line2d_31">
      <g>
       <use style="stroke:#000000;stroke-linecap:butt;stroke-width:0.5;" x="518.4" xlink:href="#m1a32005dea" y="43.2"/>
      </g>
     </g>
     <g id="text_15">
      <!-- 1.72 -->
      <g transform="translate(43.80125 47.653125)scale(0.12 -0.12)">
       <use xlink:href="#DejaVuSans-31"/>
       <use x="63.623046875" xlink:href="#DejaVuSans-2e"/>
       <use x="95.41015625" xlink:href="#DejaVuSans-37"/>
       <use x="159.033203125" xlink:href="#DejaVuSans-32"/>
      </g>
     </g>
    </g>
   </g>
   <g id="patch_3">
    <path d="
M72 43.2
L518.4 43.2" style="fill:none;stroke:#000000;"/>
   </g>
   <g id="patch_4">
    <path d="
M518.4 388.8
L518.4 43.2" style="fill:none;stroke:#000000;"/>
   </g>
   <g id="patch_5">
    <path d="
M72 388.8
L518.4 388.8" style="fill:none;stroke:#000000;"/>
   </g>
   <g id="patch_6">
    <path d="
M72 388.8
L72 43.2" style="fill:none;stroke:#000000;"/>
   </g>
  </g>
 </g>
 <defs>
  <clipPath id="p7ff5b81e1d">
   <rect height="345.6" width="446.4" x="72.0" y="43.2"/>
  </clipPath>
 </defs>
</svg>
